MutatorSansInstance_1000-600.ufo
<glyph name="comma" format="2">
  <advance width="286"/>
  <unicode hex="002C"/>
  <outline>
    <contour>
      <point x="238" y="0" type="line"/>
      <point x="238" y="300" type="line"/>
      <point x="48" y="300" type="line"/>
      <point x="48" y="0" type="line"/>
      <point x="127" y="-16" type="line"/>
      <point x="119" y="12" type="line"/>
      <point x="97" y="-143" type="line"/>
      <point x="169" y="-145" type="line"/>
    </contour>
  </outline>
</glyph>
<glyph name="period" format="2">
  <advance width="286"/>
  <unicode hex="002E"/>
  <outline>
    <contour>
      <point x="48" y="0" type="line"/>
      <point x="238" y="0" type="line"/>
      <point x="238" y="300" type="line"/>
      <point x="48" y="300" type="line"/>
    </contour>
  </outline>
</glyph>
<glyph name="A" format="2">
  <advance width="1070"/>
  <unicode hex="0041"/>
  <outline>
    <contour>
      <point x="16" y="0" type="line"/>
      <point x="310" y="0" type="line"/>
      <point x="518" y="800" type="line"/>
      <point x="266" y="800" type="line"/>
    </contour>
    <contour>
      <point x="170" y="120" type="line"/>
      <point x="796" y="120" type="line"/>
      <point x="796" y="336" type="line"/>
      <point x="170" y="336" type="line"/>
    </contour>
    <contour>
      <point x="636" y="0" type="line"/>
      <point x="1054" y="0" type="line"/>
      <point x="804" y="800" type="line"/>
      <point x="406" y="800" type="line"/>
    </contour>
    <contour>
      <point x="328" y="540" type="line"/>
      <point x="688" y="540" type="line"/>
      <point x="688" y="800" type="line"/>
      <point x="328" y="800" type="line"/>
    </contour>
  </outline>
</glyph>
<glyph name="B" format="2">
  <advance width="1064"/>
  <unicode hex="0042"/>
  <outline>
    <contour>
      <point x="48" y="0" type="line"/>
      <point x="424" y="0" type="line"/>
      <point x="424" y="801" type="line"/>
      <point x="48" y="801" type="line"/>
    </contour>
    <contour>
      <point x="382" y="341" type="line"/>
      <point x="607" y="341" type="line" smooth="yes"/>
      <point x="644" y="341"/>
      <point x="673" y="334"/>
      <point x="673" y="288" type="curve" smooth="yes"/>
      <point x="673" y="248"/>
      <point x="644" y="238"/>
      <point x="607" y="238" type="curve" smooth="yes"/>
      <point x="382" y="238" type="line"/>
      <point x="382" y="0" type="line"/>
      <point x="732" y="0" type="line" smooth="yes"/>
      <point x="987" y="0"/>
      <point x="1048" y="94"/>
      <point x="1048" y="230" type="curve" smooth="yes"/>
      <point x="1048" y="356"/>
      <point x="981" y="417"/>
      <point x="887" y="434" type="curve"/>
      <point x="865" y="377" type="line"/>
      <point x="942" y="392"/>
      <point x="1026" y="444"/>
      <point x="1026" y="563" type="curve" smooth="yes"/>
      <point x="1026" y="711"/>
      <point x="945" y="800"/>
      <point x="692" y="800" type="curve" smooth="yes"/>
      <point x="382" y="800" type="line"/>
      <point x="382" y="574" type="line"/>
      <point x="584" y="574" type="line" smooth="yes"/>
      <point x="626" y="574"/>
      <point x="655" y="565"/>
      <point x="655" y="526" type="curve" smooth="yes"/>
      <point x="655" y="476"/>
      <point x="626" y="476"/>
      <point x="584" y="476" type="curve" smooth="yes"/>
      <point x="382" y="476" type="line"/>
    </contour>
  </outline>
</glyph>
<glyph name="C" format="2">
  <advance width="1153"/>
  <unicode hex="0043"/>
  <outline>
    <contour>
      <point x="748" y="368" type="line"/>
      <point x="738" y="285"/>
      <point x="692" y="254"/>
      <point x="613" y="254" type="curve" smooth="yes"/>
      <point x="554" y="254" type="line" smooth="yes"/>
      <point x="468" y="254"/>
      <point x="420" y="298"/>
      <point x="420" y="403" type="curve" smooth="yes"/>
      <point x="420" y="504"/>
      <point x="468" y="546"/>
      <point x="554" y="546" type="curve" smooth="yes"/>
      <point x="613" y="546" type="line" smooth="yes"/>
      <point x="691" y="546"/>
      <point x="737" y="517"/>
      <point x="748" y="438" type="curve"/>
      <point x="1121" y="477" type="line"/>
      <point x="1088" y="703"/>
      <point x="912" y="810"/>
      <point x="648" y="810" type="curve" smooth="yes"/>
      <point x="518" y="810" type="line" smooth="yes"/>
      <point x="219" y="810"/>
      <point x="32" y="679"/>
      <point x="32" y="403" type="curve" smooth="yes"/>
      <point x="32" y="124"/>
      <point x="219" y="-10"/>
      <point x="518" y="-10" type="curve" smooth="yes"/>
      <point x="648" y="-10" type="line" smooth="yes"/>
      <point x="913" y="-10"/>
      <point x="1090" y="101"/>
      <point x="1121" y="331" type="curve"/>
    </contour>
  </outline>
</glyph>
<glyph name="D" format="2">
  <advance width="1038"/>
  <unicode hex="0044"/>
  <outline>
    <contour>
      <point x="48" y="0" type="line"/>
      <point x="416" y="0" type="line"/>
      <point x="416" y="800" type="line"/>
      <point x="48" y="800" type="line"/>
    </contour>
    <contour>
      <point x="363" y="546" type="line"/>
      <point x="485" y="546" type="line" smooth="yes"/>
      <point x="571" y="546"/>
      <point x="618" y="504"/>
      <point x="618" y="403" type="curve" smooth="yes"/>
      <point x="618" y="298"/>
      <point x="571" y="254"/>
      <point x="485" y="254" type="curve" smooth="yes"/>
      <point x="360" y="254" type="line"/>
      <point x="360" y="0" type="line"/>
      <point x="519" y="0" type="line" smooth="yes"/>
      <point x="818" y="0"/>
      <point x="1006" y="127"/>
      <point x="1006" y="403" type="curve" smooth="yes"/>
      <point x="1006" y="676"/>
      <point x="818" y="800"/>
      <point x="519" y="800" type="curve" smooth="yes"/>
      <point x="363" y="800" type="line"/>
    </contour>
  </outline>
</glyph>
<glyph name="E" format="2">
  <advance width="966"/>
  <unicode hex="0045"/>
  <anchor x="474" y="841" name="top"/>
  <outline>
    <contour>
      <point x="52" y="0" type="line"/>
      <point x="420" y="0" type="line"/>
      <point x="420" y="800" type="line"/>
      <point x="52" y="800" type="line"/>
    </contour>
    <contour>
      <point x="142" y="530" type="line"/>
      <point x="918" y="530" type="line"/>
      <point x="918" y="800" type="line"/>
      <point x="142" y="800" type="line"/>
    </contour>
    <contour>
      <point x="142" y="0" type="line"/>
      <point x="918" y="0" type="line"/>
      <point x="918" y="270" type="line"/>
      <point x="142" y="270" type="line"/>
    </contour>
    <contour>
      <point x="142" y="315" type="line"/>
      <point x="776" y="315" type="line"/>
      <point x="776" y="485" type="line"/>
      <point x="142" y="485" type="line"/>
    </contour>
  </outline>
</glyph>
<glyph name="F" format="2">
  <advance width="950"/>
  <unicode hex="0046"/>
  <outline>
    <contour>
      <point x="48" y="0" type="line"/>
      <point x="428" y="0" type="line"/>
      <point x="428" y="800" type="line"/>
      <point x="48" y="800" type="line"/>
    </contour>
    <contour>
      <point x="142" y="538" type="line"/>
      <point x="902" y="538" type="line"/>
      <point x="902" y="800" type="line"/>
      <point x="142" y="800" type="line"/>
    </contour>
    <contour>
      <point x="142" y="251" type="line"/>
      <point x="828" y="251" type="line"/>
      <point x="828" y="473" type="line"/>
      <point x="142" y="473" type="line"/>
    </contour>
  </outline>
</glyph>
<glyph name="G" format="2">
  <advance width="1178"/>
  <unicode hex="0047"/>
  <outline>
    <contour>
      <point x="552" y="311" type="line"/>
      <point x="779" y="311" type="line"/>
      <point x="779" y="216" type="line"/>
      <point x="939" y="0" type="line"/>
      <point x="1130" y="0" type="line"/>
      <point x="1130" y="416" type="line"/>
      <point x="552" y="416" type="line"/>
    </contour>
    <contour>
      <point x="756" y="374" type="line"/>
      <point x="746" y="291"/>
      <point x="697" y="254"/>
      <point x="613" y="254" type="curve" smooth="yes"/>
      <point x="554" y="254" type="line" smooth="yes"/>
      <point x="468" y="254"/>
      <point x="420" y="298"/>
      <point x="420" y="403" type="curve" smooth="yes"/>
      <point x="420" y="504"/>
      <point x="469" y="546"/>
      <point x="560" y="546" type="curve" smooth="yes"/>
      <point x="619" y="546" type="line" smooth="yes"/>
      <point x="699" y="546"/>
      <point x="745" y="517"/>
      <point x="756" y="438" type="curve"/>
      <point x="1117" y="477" type="line"/>
      <point x="1084" y="703"/>
      <point x="910" y="810"/>
      <point x="648" y="810" type="curve" smooth="yes"/>
      <point x="518" y="810" type="line" smooth="yes"/>
      <point x="219" y="810"/>
      <point x="32" y="679"/>
      <point x="32" y="403" type="curve" smooth="yes"/>
      <point x="32" y="124"/>
      <point x="219" y="-10"/>
      <point x="518" y="-10" type="curve" smooth="yes"/>
      <point x="540" y="-10" type="line" smooth="yes"/>
      <point x="803" y="-10"/>
      <point x="978" y="107"/>
      <point x="1009" y="337" type="curve"/>
    </contour>
  </outline>
</glyph>
<glyph name="H" format="2">
  <advance width="1116"/>
  <unicode hex="0048"/>
  <outline>
    <contour>
      <point x="48" y="0" type="line"/>
      <point x="428" y="0" type="line"/>
      <point x="428" y="800" type="line"/>
      <point x="48" y="800" type="line"/>
    </contour>
    <contour>
      <point x="194" y="266" type="line"/>
      <point x="922" y="266" type="line"/>
      <point x="922" y="526" type="line"/>
      <point x="194" y="526" type="line"/>
    </contour>
    <contour>
      <point x="688" y="0" type="line"/>
      <point x="1068" y="0" type="line"/>
      <point x="1068" y="800" type="line"/>
      <point x="688" y="800" type="line"/>
    </contour>
  </outline>
</glyph>
<glyph name="I" format="2">
  <advance width="836"/>
  <unicode hex="0049"/>
  <outline>
    <contour>
      <point x="228" y="0" type="line"/>
      <point x="608" y="0" type="line"/>
      <point x="608" y="800" type="line"/>
      <point x="228" y="800" type="line"/>
    </contour>
    <contour>
      <point x="48" y="526" type="line"/>
      <point x="788" y="526" type="line"/>
      <point x="788" y="800" type="line"/>
      <point x="48" y="800" type="line"/>
    </contour>
    <contour>
      <point x="48" y="0" type="line"/>
      <point x="788" y="0" type="line"/>
      <point x="788" y="274" type="line"/>
      <point x="48" y="274" type="line"/>
    </contour>
  </outline>
</glyph>
<glyph name="J" format="2">
  <advance width="797"/>
  <unicode hex="004A"/>
  <outline>
    <contour>
      <point x="225" y="-10" type="curve" smooth="yes"/>
      <point x="548" y="-10"/>
      <point x="749" y="122"/>
      <point x="749" y="397" type="curve" smooth="yes"/>
      <point x="749" y="800" type="line"/>
      <point x="361" y="800" type="line"/>
      <point x="361" y="441" type="line" smooth="yes"/>
      <point x="361" y="328"/>
      <point x="306" y="280"/>
      <point x="212" y="280" type="curve" smooth="yes"/>
      <point x="184" y="280"/>
      <point x="141" y="282"/>
      <point x="94" y="291" type="curve"/>
      <point x="48" y="9" type="line"/>
      <point x="102" y="-4"/>
      <point x="161" y="-10"/>
    </contour>
  </outline>
</glyph>
<glyph name="K" format="2">
  <advance width="1118"/>
  <unicode hex="004B"/>
  <outline>
    <contour>
      <point x="48" y="0" type="line"/>
      <point x="428" y="0" type="line"/>
      <point x="428" y="800" type="line"/>
      <point x="48" y="800" type="line"/>
    </contour>
    <contour>
      <point x="324" y="312" type="line"/>
      <point x="438" y="312" type="line"/>
      <point x="636" y="0" type="line"/>
      <point x="1102" y="0" type="line"/>
      <point x="756" y="533" type="line"/>
      <point x="443" y="452" type="line"/>
      <point x="324" y="452" type="line"/>
    </contour>
    <contour>
      <point x="423" y="426" type="line"/>
      <point x="648" y="318" type="line"/>
      <point x="1090" y="800" type="line"/>
      <point x="668" y="800" type="line"/>
    </contour>
  </outline>
</glyph>
<glyph name="L" format="2">
  <advance width="862"/>
  <unicode hex="004C"/>
  <outline>
    <contour>
      <point x="48" y="0" type="line"/>
      <point x="428" y="0" type="line"/>
      <point x="428" y="800" type="line"/>
      <point x="48" y="800" type="line"/>
    </contour>
    <contour>
      <point x="142" y="0" type="line"/>
      <point x="842" y="0" type="line"/>
      <point x="842" y="268" type="line"/>
      <point x="142" y="268" type="line"/>
    </contour>
  </outline>
</glyph>
<glyph name="M" format="2">
  <advance width="1112"/>
  <unicode hex="004D"/>
  <outline>
    <contour>
      <point x="48" y="0" type="line"/>
      <point x="340" y="0" type="line"/>
      <point x="340" y="800" type="line"/>
      <point x="48" y="800" type="line"/>
    </contour>
    <contour>
      <point x="1064" y="0" type="line"/>
      <point x="1064" y="800" type="line"/>
      <point x="772" y="800" type="line"/>
      <point x="772" y="0" type="line"/>
    </contour>
    <contour>
      <point x="896" y="414" type="line"/>
      <point x="772" y="800" type="line"/>
      <point x="536" y="549" type="line"/>
      <point x="576" y="549" type="line"/>
      <point x="340" y="800" type="line"/>
      <point x="216" y="414" type="line"/>
      <point x="499" y="128" type="line"/>
      <point x="613" y="128" type="line"/>
    </contour>
  </outline>
</glyph>
<glyph name="N" format="2">
  <advance width="1101"/>
  <unicode hex="004E"/>
  <outline>
    <contour>
      <point x="48" y="0" type="line"/>
      <point x="340" y="0" type="line"/>
      <point x="340" y="800" type="line"/>
      <point x="48" y="800" type="line"/>
    </contour>
    <contour>
      <point x="198" y="480" type="line"/>
      <point x="760" y="0" type="line"/>
      <point x="902" y="320" type="line"/>
      <point x="340" y="800" type="line"/>
    </contour>
    <contour>
      <point x="761" y="0" type="line"/>
      <point x="1053" y="0" type="line"/>
      <point x="1053" y="800" type="line"/>
      <point x="761" y="800" type="line"/>
    </contour>
  </outline>
</glyph>
<glyph name="O" format="2">
  <advance width="1166"/>
  <unicode hex="004F"/>
  <outline>
    <contour>
      <point x="518" y="-10" type="curve" smooth="yes"/>
      <point x="648" y="-10" type="line" smooth="yes"/>
      <point x="946" y="-10"/>
      <point x="1134" y="124"/>
      <point x="1134" y="403" type="curve" smooth="yes"/>
      <point x="1134" y="679"/>
      <point x="946" y="810"/>
      <point x="648" y="810" type="curve" smooth="yes"/>
      <point x="518" y="810" type="line" smooth="yes"/>
      <point x="219" y="810"/>
      <point x="32" y="679"/>
      <point x="32" y="403" type="curve" smooth="yes"/>
      <point x="32" y="124"/>
      <point x="219" y="-10"/>
    </contour>
    <contour>
      <point x="554" y="254" type="line" smooth="yes"/>
      <point x="468" y="254"/>
      <point x="420" y="298"/>
      <point x="420" y="403" type="curve" smooth="yes"/>
      <point x="420" y="504"/>
      <point x="468" y="546"/>
      <point x="554" y="546" type="curve" smooth="yes"/>
      <point x="613" y="546" type="line" smooth="yes"/>
      <point x="699" y="546"/>
      <point x="747" y="504"/>
      <point x="747" y="403" type="curve" smooth="yes"/>
      <point x="747" y="298"/>
      <point x="699" y="254"/>
      <point x="613" y="254" type="curve" smooth="yes"/>
    </contour>
  </outline>
</glyph>
<glyph name="P" format="2">
  <advance width="1015"/>
  <unicode hex="0050"/>
  <outline>
    <contour>
      <point x="48" y="0" type="line"/>
      <point x="428" y="0" type="line"/>
      <point x="428" y="800" type="line"/>
      <point x="48" y="800" type="line"/>
    </contour>
    <contour>
      <point x="298" y="527" type="line"/>
      <point x="578" y="527" type="line" smooth="yes"/>
      <point x="628" y="527"/>
      <point x="650" y="515"/>
      <point x="650" y="468" type="curve" smooth="yes"/>
      <point x="650" y="414"/>
      <point x="628" y="406"/>
      <point x="578" y="406" type="curve" smooth="yes"/>
      <point x="298" y="406" type="line"/>
      <point x="298" y="132" type="line"/>
      <point x="567" y="132" type="line" smooth="yes"/>
      <point x="886" y="132"/>
      <point x="995" y="242"/>
      <point x="995" y="468" type="curve" smooth="yes"/>
      <point x="995" y="691"/>
      <point x="886" y="800"/>
      <point x="569" y="800" type="curve" smooth="yes"/>
      <point x="298" y="800" type="line"/>
    </contour>
  </outline>
</glyph>
<glyph name="Q" format="2">
  <advance width="1166"/>
  <unicode hex="0051"/>
  <outline>
    <contour>
      <point x="500" y="-130" type="line"/>
      <point x="876" y="-130" type="line"/>
      <point x="748" y="170" type="line"/>
      <point x="383" y="170" type="line"/>
    </contour>
    <component base="O"/>
  </outline>
</glyph>
<glyph name="R" format="2">
  <advance width="1019"/>
  <unicode hex="0052"/>
  <outline>
    <contour>
      <point x="604" y="0" type="line"/>
      <point x="991" y="0" type="line"/>
      <point x="947" y="134" type="line" smooth="yes"/>
      <point x="917" y="198"/>
      <point x="869" y="248"/>
      <point x="783" y="248" type="curve"/>
      <point x="530" y="248" type="line"/>
    </contour>
    <contour>
      <point x="48" y="0" type="line"/>
      <point x="428" y="0" type="line"/>
      <point x="428" y="800" type="line"/>
      <point x="48" y="800" type="line"/>
    </contour>
    <contour>
      <point x="298" y="527" type="line"/>
      <point x="582" y="527" type="line" smooth="yes"/>
      <point x="632" y="527"/>
      <point x="654" y="515"/>
      <point x="654" y="468" type="curve" smooth="yes"/>
      <point x="654" y="414"/>
      <point x="632" y="406"/>
      <point x="582" y="406" type="curve" smooth="yes"/>
      <point x="298" y="406" type="line"/>
      <point x="298" y="192" type="line"/>
      <point x="575" y="192" type="line" smooth="yes"/>
      <point x="886" y="192"/>
      <point x="999" y="292"/>
      <point x="999" y="498" type="curve" smooth="yes"/>
      <point x="999" y="701"/>
      <point x="882" y="800"/>
      <point x="572" y="800" type="curve" smooth="yes"/>
      <point x="298" y="800" type="line"/>
    </contour>
  </outline>
</glyph>
<glyph name="S" format="2">
  <advance width="1017"/>
  <unicode hex="0053"/>
  <outline>
    <contour>
      <point x="991" y="253" type="curve" smooth="yes"/>
      <point x="991" y="462"/>
      <point x="872" y="522"/>
      <point x="609" y="531" type="curve" smooth="yes"/>
      <point x="465" y="536" type="line" smooth="yes"/>
      <point x="353" y="540"/>
      <point x="344" y="542"/>
      <point x="344" y="552" type="curve" smooth="yes"/>
      <point x="344" y="563"/>
      <point x="364" y="567"/>
      <point x="437" y="567" type="curve" smooth="yes"/>
      <point x="580" y="567" type="line" smooth="yes"/>
      <point x="702" y="567"/>
      <point x="823" y="558"/>
      <point x="912" y="548" type="curve"/>
      <point x="948" y="780" type="line"/>
      <point x="859" y="793"/>
      <point x="707" y="810"/>
      <point x="625" y="810" type="curve" smooth="yes"/>
      <point x="530" y="810" type="line" smooth="yes"/>
      <point x="175" y="810"/>
      <point x="31" y="719"/>
      <point x="31" y="529" type="curve" smooth="yes"/>
      <point x="31" y="343"/>
      <point x="170" y="279"/>
      <point x="415" y="269" type="curve" smooth="yes"/>
      <point x="551" y="264" type="line" smooth="yes"/>
      <point x="651" y="259"/>
      <point x="670" y="259"/>
      <point x="670" y="246" type="curve" smooth="yes"/>
      <point x="670" y="238"/>
      <point x="649" y="234"/>
      <point x="576" y="234" type="curve" smooth="yes"/>
      <point x="441" y="234" type="line" smooth="yes"/>
      <point x="299" y="234"/>
      <point x="167" y="242"/>
      <point x="65" y="255" type="curve"/>
      <point x="30" y="20" type="line"/>
      <point x="134" y="5"/>
      <point x="301" y="-10"/>
      <point x="397" y="-10" type="curve" smooth="yes"/>
      <point x="503" y="-10" type="line" smooth="yes"/>
      <point x="883" y="-10"/>
      <point x="991" y="99"/>
    </contour>
  </outline>
</glyph>
<glyph name="T" format="2">
  <advance width="1004"/>
  <unicode hex="0054"/>
  <outline>
    <contour>
      <point x="312" y="0" type="line"/>
      <point x="692" y="0" type="line"/>
      <point x="692" y="800" type="line"/>
      <point x="312" y="800" type="line"/>
    </contour>
    <contour>
      <point x="20" y="514" type="line"/>
      <point x="984" y="514" type="line"/>
      <point x="984" y="800" type="line"/>
      <point x="20" y="800" type="line"/>
    </contour>
  </outline>
</glyph>
<glyph name="U" format="2">
  <advance width="1099"/>
  <unicode hex="0055"/>
  <outline>
    <contour>
      <point x="549" y="-10" type="curve" smooth="yes"/>
      <point x="861" y="-10"/>
      <point x="1033" y="122"/>
      <point x="1033" y="397" type="curve" smooth="yes"/>
      <point x="1033" y="800" type="line"/>
      <point x="646" y="800" type="line"/>
      <point x="646" y="377" type="line" smooth="yes"/>
      <point x="646" y="303"/>
      <point x="611" y="272"/>
      <point x="549" y="272" type="curve" smooth="yes"/>
      <point x="489" y="272"/>
      <point x="453" y="303"/>
      <point x="453" y="377" type="curve" smooth="yes"/>
      <point x="453" y="800" type="line"/>
      <point x="66" y="800" type="line"/>
      <point x="66" y="397" type="line" smooth="yes"/>
      <point x="66" y="122"/>
      <point x="236" y="-10"/>
    </contour>
  </outline>
</glyph>
<glyph name="V" format="2">
  <advance width="1088"/>
  <unicode hex="0056"/>
  <outline>
    <contour>
      <point x="1072" y="800" type="line"/>
      <point x="774" y="800" type="line"/>
      <point x="542" y="0" type="line"/>
      <point x="798" y="0" type="line"/>
    </contour>
    <contour>
      <point x="434" y="800" type="line"/>
      <point x="16" y="800" type="line"/>
      <point x="284" y="0" type="line"/>
      <point x="682" y="0" type="line"/>
    </contour>
    <contour>
      <point x="748" y="260" type="line"/>
      <point x="388" y="260" type="line"/>
      <point x="388" y="0" type="line"/>
      <point x="748" y="0" type="line"/>
    </contour>
  </outline>
</glyph>
<glyph name="W" format="2">
  <advance width="1176"/>
  <unicode hex="0057"/>
  <outline>
    <contour>
      <point x="1160" y="800" type="line"/>
      <point x="829" y="800" type="line"/>
      <point x="766" y="270" type="line"/>
      <point x="797" y="270" type="line"/>
      <point x="731" y="800" type="line"/>
      <point x="484" y="800" type="line"/>
      <point x="426" y="270" type="line"/>
      <point x="457" y="270" type="line"/>
      <point x="391" y="800" type="line"/>
      <point x="16" y="800" type="line"/>
      <point x="150" y="0" type="line"/>
      <point x="531" y="0" type="line"/>
      <point x="591" y="445" type="line"/>
      <point x="536" y="445" type="line"/>
      <point x="611" y="0" type="line"/>
      <point x="1030" y="0" type="line"/>
    </contour>
  </outline>
</glyph>
<glyph name="X" format="2">
  <advance width="1068"/>
  <unicode hex="0058"/>
  <outline>
    <contour>
      <point x="606" y="0" type="line"/>
      <point x="1052" y="0" type="line"/>
      <point x="686" y="476" type="line"/>
      <point x="462" y="800" type="line"/>
      <point x="16" y="800" type="line"/>
      <point x="369" y="364" type="line"/>
    </contour>
    <contour>
      <point x="16" y="0" type="line"/>
      <point x="378" y="0" type="line"/>
      <point x="534" y="317" type="line"/>
      <point x="703" y="331" type="line"/>
      <point x="1052" y="800" type="line"/>
      <point x="690" y="800" type="line"/>
      <point x="521" y="504" type="line"/>
      <point x="348" y="484" type="line"/>
    </contour>
  </outline>
</glyph>
<glyph name="Y" format="2">
  <advance width="1022"/>
  <unicode hex="0059"/>
  <outline>
    <contour>
      <point x="1006" y="800" type="line"/>
      <point x="704" y="800" type="line"/>
      <point x="453" y="206" type="line"/>
      <point x="701" y="206" type="line"/>
    </contour>
    <contour>
      <point x="414" y="800" type="line"/>
      <point x="16" y="800" type="line"/>
      <point x="321" y="206" type="line"/>
      <point x="671" y="206" type="line"/>
    </contour>
    <contour>
      <point x="701" y="336" type="line"/>
      <point x="321" y="336" type="line"/>
      <point x="321" y="0" type="line"/>
      <point x="701" y="0" type="line"/>
    </contour>
  </outline>
</glyph>
<glyph name="Z" format="2">
  <advance width="1024"/>
  <unicode hex="005A"/>
  <outline>
    <contour>
      <point x="48" y="268" type="line"/>
      <point x="500" y="200" type="line"/>
      <point x="976" y="532" type="line"/>
      <point x="524" y="600" type="line"/>
    </contour>
    <contour>
      <point x="48" y="532" type="line"/>
      <point x="976" y="532" type="line"/>
      <point x="976" y="800" type="line"/>
      <point x="48" y="800" type="line"/>
    </contour>
    <contour>
      <point x="48" y="0" type="line"/>
      <point x="976" y="0" type="line"/>
      <point x="976" y="268" type="line"/>
      <point x="48" y="268" type="line"/>
    </contour>
  </outline>
</glyph>
